<svg width="12" height="13" viewBox="0 0 12 13" fill="none" xmlns="http://www.w3.org/2000/svg">
<path d="M0.312574 11.5001C0.0364618 11.8797 0.120399 12.4113 0.500054 12.6874C0.879709 12.9635 1.41131 12.8796 1.68743 12.4999L0.312574 11.5001ZM9.8396 0.867432C9.76638 0.403735 9.33113 0.0871865 8.86743 0.160402L1.31104 1.35352C0.847347 1.42673 0.530799 1.86199 0.604014 2.32568C0.677229 2.78938 1.11248 3.10593 1.57618 3.03271L8.29297 1.97217L9.35351 8.68896C9.42673 9.15265 9.86198 9.4692 10.3257 9.39599C10.7894 9.32277 11.1059 8.88752 11.0327 8.42382L9.8396 0.867432ZM1 12L1.68743 12.4999L9.68742 1.49995L9 1L8.31257 0.500054L0.312574 11.5001L1 12Z" fill="white"/>
</svg>
