<svg width="1440" height="2277" viewBox="0 0 1440 2277" fill="none" xmlns="http://www.w3.org/2000/svg">
<path d="M-113.793 974.723C-99.6135 924.798 -61.7557 884.105 -5.34193 853.284C51.0741 822.462 126.013 801.535 214.264 791.14C390.764 770.35 620.413 791.698 861.363 860.132C1102.31 928.566 1308.9 1031.12 1448.12 1141.58C1517.73 1196.81 1570.49 1254 1602.28 1309.88C1634.07 1365.75 1644.89 1420.27 1630.71 1470.19C1616.53 1520.12 1578.67 1560.81 1522.25 1591.63C1465.84 1622.45 1390.9 1643.38 1302.65 1653.78C1126.15 1674.57 896.5 1653.22 655.55 1584.78C414.6 1516.35 208.014 1413.8 68.791 1303.34C-0.82135 1248.11 -53.5728 1190.91 -85.3654 1135.04C-117.157 1079.17 -127.973 1024.65 -113.793 974.723Z" stroke="#DA70D6"/>
<path d="M-109.337 959.538C-94.2878 909.869 -55.7256 869.842 1.21747 840.01C58.1628 810.178 133.455 790.562 221.875 781.709C398.711 764.002 627.952 789.355 867.671 861.984C1107.39 934.612 1312.16 1040.75 1449.43 1153.63C1518.07 1210.06 1569.81 1268.17 1600.62 1324.59C1631.44 1381.01 1641.3 1435.71 1626.25 1485.38C1611.2 1535.05 1572.64 1575.07 1515.7 1604.91C1458.75 1634.74 1383.46 1654.35 1295.04 1663.21C1118.2 1680.91 888.962 1655.56 649.242 1582.93C409.523 1510.3 204.758 1404.16 67.4845 1291.29C-1.15326 1234.85 -52.8985 1176.75 -83.7111 1120.33C-114.523 1063.91 -124.385 1009.21 -109.337 959.538Z" stroke="#DA70D6"/>
<path d="M-104.616 944.433C-88.7024 895.033 -49.4474 855.685 8.00757 826.852C65.4649 798.018 141.088 779.719 229.649 772.411C406.767 757.793 635.531 787.143 873.946 863.944C1112.36 940.745 1315.24 1050.44 1450.53 1165.7C1518.17 1223.32 1568.89 1282.32 1598.71 1339.27C1628.54 1396.22 1637.44 1451.08 1621.53 1500.48C1605.62 1549.88 1566.36 1589.23 1508.91 1618.06C1451.45 1646.9 1375.83 1665.2 1287.27 1672.5C1110.15 1687.12 881.383 1657.77 642.968 1580.97C404.553 1504.17 201.672 1394.47 66.3886 1279.22C-1.25375 1221.59 -51.977 1162.59 -81.8003 1105.64C-111.622 1048.7 -120.529 993.833 -104.616 944.433Z" stroke="#DA70D6"/>
<path d="M-99.632 929.413C-82.8588 880.298 -42.9231 841.642 15.0263 813.816C72.9781 785.989 148.909 769.013 237.584 763.251C414.93 751.727 643.147 785.064 880.185 866.015C1117.22 946.965 1318.16 1060.19 1451.41 1177.78C1518.04 1236.58 1567.72 1296.46 1596.55 1353.92C1625.37 1411.38 1633.32 1466.39 1616.55 1515.5C1599.77 1564.62 1559.84 1603.27 1501.89 1631.1C1443.94 1658.93 1368 1675.9 1279.33 1681.67C1101.98 1693.19 873.767 1659.85 636.729 1578.9C399.69 1497.95 198.755 1384.73 65.5036 1267.13C-1.12277 1208.33 -50.8086 1148.46 -79.6335 1091C-108.457 1033.54 -116.405 978.528 -99.632 929.413Z" stroke="#DA70D6"/>
<path d="M-94.3874 914.482C-76.7596 865.668 -36.1553 827.714 22.2709 800.904C80.6995 774.092 156.915 758.444 245.677 754.23C423.197 745.803 650.798 783.118 886.387 868.194C1121.98 953.269 1320.91 1069.98 1452.08 1189.88C1517.67 1249.84 1566.31 1310.57 1594.12 1368.52C1621.94 1426.48 1628.93 1481.62 1611.3 1530.43C1593.67 1579.25 1553.07 1617.2 1494.64 1644.01C1436.21 1670.82 1360 1686.47 1271.24 1690.69C1093.72 1699.11 866.116 1661.8 630.526 1576.72C394.937 1491.65 196.007 1374.94 64.829 1255.03C-0.761029 1195.08 -49.3943 1134.35 -77.2119 1076.39C-105.028 1018.44 -112.015 963.296 -94.3874 914.482Z" stroke="#DA70D6"/>
<path d="M-88.8823 899.645C-70.4053 851.145 -29.1448 813.906 29.7404 788.119C88.628 762.332 165.105 748.016 253.927 745.352C431.568 740.024 658.482 781.306 892.551 870.48C1126.62 959.654 1323.48 1079.82 1452.55 1201.99C1517.08 1263.08 1564.65 1324.65 1591.45 1383.09C1618.25 1441.52 1624.27 1496.77 1605.8 1545.27C1587.32 1593.77 1546.06 1631.01 1487.17 1656.8C1428.28 1682.58 1351.81 1696.9 1262.99 1699.56C1085.35 1704.89 858.432 1663.61 624.363 1574.44C390.294 1485.26 193.432 1365.1 64.3664 1242.92C-0.167344 1181.83 -47.7333 1120.26 -74.5352 1061.83C-101.336 1003.4 -107.359 948.144 -88.8823 899.645Z" stroke="#DA70D6"/>
<path d="M-83.1192 884.905C-63.7986 836.736 -21.8945 800.222 37.4318 775.467C96.7605 750.711 173.476 737.732 262.331 736.619C440.037 734.392 666.196 779.628 898.673 872.873C1131.15 966.119 1325.89 1089.7 1452.8 1214.11C1516.26 1276.31 1562.74 1338.71 1588.52 1397.6C1614.29 1456.49 1619.35 1511.84 1600.03 1560.01C1580.71 1608.18 1538.81 1644.69 1479.48 1669.45C1420.15 1694.2 1343.44 1707.18 1254.58 1708.3C1076.88 1710.52 850.718 1665.29 618.241 1572.04C385.764 1478.8 191.029 1355.21 64.1151 1230.81C0.657328 1168.6 -45.8268 1106.21 -71.6048 1047.31C-97.3818 988.425 -102.44 933.074 -83.1192 884.905Z" stroke="#DA70D6"/>
<path d="M-77.1001 870.268C-56.9418 822.444 -14.4068 786.667 45.3425 762.951C105.094 739.234 182.025 727.596 270.885 728.034C448.603 728.909 673.939 778.085 904.753 875.373C1135.57 972.661 1328.12 1099.62 1452.84 1226.23C1515.2 1289.53 1560.59 1352.73 1585.33 1412.06C1610.08 1471.39 1614.17 1526.82 1594.01 1574.64C1573.86 1622.47 1531.32 1658.25 1471.57 1681.96C1411.82 1705.68 1334.89 1717.32 1246.03 1716.88C1068.31 1716 842.975 1666.83 612.161 1569.54C381.347 1472.25 188.798 1345.29 64.075 1218.69C1.71253 1155.38 -43.6756 1092.19 -68.4219 1032.85C-93.1672 973.524 -97.2584 918.093 -77.1001 870.268Z" stroke="#DA70D6"/>
<path d="M-70.826 855.74C-49.8361 808.274 -6.68325 773.245 53.4709 750.575C113.627 727.905 190.749 717.611 279.588 719.6C457.264 723.576 681.707 776.677 910.788 877.979C1139.87 979.281 1330.17 1109.58 1452.67 1238.35C1513.92 1302.73 1558.19 1366.71 1581.9 1426.46C1605.61 1486.21 1608.73 1541.71 1587.74 1589.17C1566.75 1636.64 1523.6 1671.67 1463.44 1694.34C1403.29 1717.01 1326.16 1727.3 1237.33 1725.31C1059.65 1721.34 835.207 1668.24 606.126 1566.93C377.045 1465.63 186.742 1335.33 64.2468 1206.57C2.99866 1142.19 -41.2796 1078.21 -64.9867 1018.45C-88.6928 958.699 -91.8159 903.205 -70.826 855.74Z" stroke="#DA70D6"/>
<path d="M-64.2998 841.323C-42.4847 794.231 1.27296 759.96 61.8136 738.344C122.357 716.727 199.646 707.781 288.437 711.319C466.017 718.396 689.499 775.406 916.777 880.691C1144.06 985.975 1332.06 1119.58 1452.28 1250.46C1512.4 1315.9 1555.55 1380.64 1578.21 1440.8C1600.87 1500.96 1603.03 1556.5 1581.21 1603.59C1559.4 1650.68 1515.64 1684.95 1455.1 1706.57C1394.56 1728.19 1317.27 1737.13 1228.48 1733.6C1050.9 1726.52 827.415 1669.51 600.137 1564.22C372.859 1458.94 184.859 1325.33 64.6297 1194.45C4.51449 1129.01 -38.6405 1064.27 -61.301 1004.11C-83.9607 943.955 -86.1148 888.415 -64.2998 841.323Z" stroke="#DA70D6"/>
<path d="M-57.5231 827.022C-34.8894 780.318 9.45967 746.816 70.3683 726.26C131.279 705.703 208.713 698.107 297.429 703.195C474.858 713.37 697.311 774.271 922.717 883.506C1148.12 992.741 1333.76 1129.61 1451.69 1262.56C1510.65 1329.04 1552.67 1394.53 1574.28 1455.08C1595.88 1515.62 1597.07 1571.19 1574.44 1617.89C1551.8 1664.6 1507.45 1698.1 1446.54 1718.65C1385.63 1739.21 1308.2 1746.81 1219.48 1741.72C1042.06 1731.55 819.603 1670.64 594.196 1561.41C368.79 1452.17 183.15 1315.31 65.2238 1182.35C6.25983 1115.87 -35.7587 1050.39 -57.3658 989.839C-78.9721 929.295 -80.1567 873.727 -57.5231 827.022Z" stroke="#DA70D6"/>
<path d="M-50.4971 812.841C-27.0518 766.539 17.8752 733.816 79.1333 714.326C140.394 694.835 217.949 688.592 306.562 695.227C483.786 708.497 705.143 773.272 928.608 886.424C1152.07 999.576 1335.3 1139.66 1450.88 1274.66C1508.68 1342.16 1549.55 1408.36 1570.09 1469.28C1590.64 1530.19 1590.86 1585.77 1567.41 1632.07C1543.97 1678.37 1499.04 1711.1 1437.78 1730.59C1376.52 1750.08 1298.97 1756.32 1210.35 1749.69C1033.13 1736.42 811.772 1671.64 588.306 1558.49C364.841 1445.34 181.618 1305.25 66.0297 1170.26C8.23495 1102.76 -32.6343 1036.55 -53.1815 975.636C-73.7278 914.724 -73.9424 859.143 -50.4971 812.841Z" stroke="#DA70D6"/>
<path d="M-43.2249 798.785C-18.9751 752.899 26.5161 720.966 88.1051 702.547C149.696 684.129 227.348 679.24 315.833 687.42C492.798 703.781 712.99 772.409 934.447 889.444C1155.9 1006.48 1336.65 1149.74 1449.87 1286.73C1506.48 1355.23 1546.18 1422.14 1565.66 1483.4C1585.14 1544.67 1584.39 1600.24 1560.14 1646.13C1535.89 1692.01 1490.4 1723.95 1428.81 1742.37C1367.22 1760.78 1289.57 1765.67 1201.08 1757.49C1024.12 1741.13 803.924 1672.5 582.468 1555.47C361.011 1438.43 180.261 1295.17 67.0464 1158.18C10.4384 1089.68 -29.2691 1022.77 -48.75 961.508C-68.2302 900.247 -67.4747 844.671 -43.2249 798.785Z" stroke="#DA70D6"/>
<path d="M-35.7085 784.857C-10.6615 739.402 35.3801 708.267 97.2811 690.927C159.185 673.586 236.91 670.053 325.238 679.776C501.891 699.223 720.852 771.684 940.232 892.566C1159.61 1013.45 1337.84 1159.84 1448.64 1298.79C1504.05 1368.26 1542.58 1435.86 1560.99 1497.45C1579.39 1559.04 1577.67 1614.6 1552.62 1660.05C1527.58 1705.51 1481.53 1736.64 1419.63 1753.98C1357.73 1771.33 1280 1774.86 1191.68 1765.14C1015.02 1745.69 796.063 1673.23 576.683 1552.35C357.302 1431.46 179.08 1285.07 68.2737 1146.12C12.8699 1076.65 -25.6639 1009.05 -44.0726 947.46C-62.4807 885.868 -60.7554 830.313 -35.7085 784.857Z" stroke="#DA70D6"/>
<path d="M-27.9509 771.065C-2.11444 726.053 44.4635 695.727 106.658 679.47C168.854 663.211 246.63 661.036 334.774 672.299C511.061 694.826 728.724 771.097 945.961 895.789C1163.2 1020.48 1338.84 1169.96 1447.2 1310.82C1501.39 1381.26 1538.73 1449.51 1556.06 1511.42C1573.39 1573.32 1570.7 1628.84 1544.86 1673.85C1519.03 1718.86 1472.45 1749.19 1410.26 1765.44C1348.06 1781.7 1270.28 1783.88 1182.14 1772.61C1005.85 1750.09 788.19 1673.82 570.953 1549.12C353.715 1424.43 178.075 1274.95 69.7105 1134.09C15.5276 1063.66 -21.8206 995.403 -39.1516 933.497C-56.4819 871.593 -53.7873 816.077 -27.9509 771.065Z" stroke="#DA70D6"/>
<path d="M-19.9531 757.409C6.66498 712.855 53.7651 683.347 116.234 668.177C178.705 653.007 256.506 652.189 344.441 664.989C520.308 690.589 736.606 770.647 951.634 899.112C1166.66 1027.58 1339.67 1180.1 1445.56 1322.83C1498.5 1394.2 1534.65 1463.09 1550.9 1525.29C1567.15 1587.49 1563.48 1642.95 1536.87 1687.5C1510.25 1732.06 1463.15 1761.57 1400.68 1776.74C1338.21 1791.91 1260.41 1792.73 1172.47 1779.93C996.607 1754.33 780.308 1674.27 565.28 1545.8C350.252 1417.34 177.247 1264.81 71.3578 1122.08C18.4123 1050.72 -17.739 981.82 -33.9869 919.621C-50.2342 857.424 -46.5711 801.963 -19.9531 757.409Z" stroke="#DA70D6"/>
<path d="M-11.7184 743.895C15.6732 699.812 63.2812 671.13 126.005 657.053C188.731 642.975 266.535 643.515 354.233 657.848C529.626 686.514 744.495 770.334 957.248 902.532C1170 1034.73 1340.32 1190.25 1443.7 1334.81C1495.39 1407.09 1530.33 1476.6 1545.49 1539.08C1560.65 1601.55 1556.02 1656.94 1528.63 1701.02C1501.24 1745.1 1453.63 1773.78 1390.91 1787.86C1328.18 1801.94 1250.38 1801.4 1162.68 1787.07C987.288 1758.4 772.42 1674.58 559.666 1542.38C346.913 1410.18 176.597 1254.66 73.2142 1110.11C21.5223 1037.83 -13.4211 968.31 -28.581 905.836C-43.7403 843.365 -39.1099 787.977 -11.7184 743.895Z" stroke="#DA70D6"/>
<path d="M-3.24902 730.526C24.9078 686.929 73.0091 659.082 135.969 646.101C198.931 633.121 276.714 635.018 364.148 650.88C539.015 682.602 752.387 770.16 962.801 906.05C1173.21 1041.94 1340.79 1200.41 1441.63 1346.75C1492.06 1419.92 1525.78 1490.04 1539.85 1552.76C1553.92 1615.49 1548.32 1670.79 1520.16 1714.39C1492.01 1757.98 1443.9 1785.83 1380.94 1798.81C1317.98 1811.79 1240.2 1809.9 1152.77 1794.03C977.9 1762.31 764.527 1674.75 554.113 1538.86C343.7 1402.97 176.123 1244.5 75.2793 1098.16C24.8567 1024.99 -8.86808 954.878 -22.9354 892.149C-37.0021 829.423 -31.4058 774.124 -3.24902 730.526Z" stroke="#DA70D6"/>
<path d="M5.45252 717.307C34.3659 674.207 82.9459 647.204 146.123 635.325C209.302 623.445 287.04 626.7 374.184 644.084C548.47 678.854 760.282 770.122 968.292 909.664C1176.3 1049.21 1341.09 1210.58 1439.36 1358.65C1488.5 1432.69 1520.99 1503.39 1533.97 1566.35C1546.94 1629.31 1540.37 1684.5 1511.46 1727.6C1482.55 1770.7 1433.97 1797.71 1370.79 1809.59C1307.61 1821.47 1229.87 1818.21 1142.73 1800.83C968.445 1766.06 756.633 1674.79 548.622 1535.25C340.612 1395.71 175.827 1234.34 77.5527 1086.26C28.4148 1012.22 -4.08115 941.526 -17.0516 878.562C-30.0214 815.6 -23.4608 760.407 5.45252 717.307Z" stroke="#DA70D6"/>
<path d="M14.3833 704.243C44.0445 661.654 93.0883 635.503 156.463 624.728C219.84 613.952 297.509 618.563 384.336 637.466C557.989 675.272 768.176 770.223 973.719 913.374C1179.26 1056.53 1341.21 1220.75 1436.88 1370.52C1484.72 1445.4 1515.98 1516.65 1527.85 1579.83C1539.71 1643.01 1532.19 1698.08 1502.53 1740.67C1472.87 1783.26 1423.83 1809.41 1360.45 1820.19C1297.07 1830.96 1219.41 1826.35 1132.58 1807.45C958.925 1769.64 748.739 1674.69 543.195 1531.54C337.653 1388.39 175.709 1224.17 80.0334 1074.4C32.1952 999.512 0.937949 928.261 -10.9316 865.08C-22.8007 801.901 -15.2778 746.831 14.3833 704.243Z" stroke="#DA70D6"/>
<path d="M23.5401 691.336C53.9401 649.272 103.433 623.98 166.986 614.313C230.541 604.645 308.118 610.611 394.602 631.027C567.569 671.857 776.067 770.462 979.08 917.179C1182.09 1063.9 1341.15 1230.92 1434.19 1382.33C1480.72 1458.04 1510.73 1529.83 1521.49 1593.21C1532.26 1656.58 1523.77 1711.51 1493.37 1753.58C1462.97 1795.64 1413.48 1820.93 1349.93 1830.6C1286.37 1840.27 1208.8 1834.3 1122.31 1813.89C949.345 1773.06 740.847 1674.45 537.833 1527.74C334.82 1381.02 175.767 1214 82.7201 1062.58C36.1961 986.872 6.18715 915.086 -4.57792 851.707C-15.3426 788.331 -6.85975 733.401 23.5401 691.336Z" stroke="#DA70D6"/>
<path d="M32.9222 678.59C64.0516 637.063 113.978 612.639 177.69 604.082C241.405 595.525 318.865 602.844 404.98 624.766C577.208 668.609 783.953 770.837 984.375 921.075C1184.8 1071.31 1340.91 1241.09 1431.3 1394.1C1476.5 1470.61 1505.25 1542.91 1514.9 1606.47C1524.56 1670.02 1515.12 1724.79 1483.99 1766.32C1452.86 1807.85 1402.94 1832.27 1339.22 1840.83C1275.51 1849.39 1198.05 1842.07 1111.93 1820.15C939.707 1776.3 732.962 1674.08 532.54 1523.84C332.118 1373.6 176.004 1203.83 85.614 1050.81C40.4184 974.302 11.6668 902.003 2.00951 838.446C-7.64742 774.891 1.79276 720.118 32.9222 678.59Z" stroke="#DA70D6"/>
<path d="M42.5241 666.011C74.3735 625.033 124.719 601.485 188.57 594.041C252.424 586.597 329.746 595.267 415.465 618.688C586.901 665.53 791.831 771.352 989.6 925.064C1187.37 1078.78 1340.5 1251.25 1428.2 1405.82C1472.06 1483.11 1499.54 1555.89 1508.09 1619.61C1516.63 1683.32 1506.24 1737.92 1474.39 1778.9C1442.54 1819.88 1392.19 1843.43 1328.34 1850.87C1264.49 1858.32 1187.17 1849.65 1101.45 1826.23C930.013 1779.38 725.084 1673.56 527.314 1519.85C329.545 1366.14 176.418 1193.67 88.7118 1039.09C44.8583 961.808 17.3729 889.019 8.82632 825.303C0.280043 761.59 10.6747 706.989 42.5241 666.011Z" stroke="#DA70D6"/>
<path d="M52.3447 653.601C84.9044 613.185 135.653 590.519 199.625 584.191C263.599 577.862 340.757 587.88 426.055 612.794C596.647 662.621 799.699 772.003 994.755 929.143C1189.81 1086.28 1339.91 1261.4 1424.9 1417.48C1467.4 1495.52 1493.61 1568.78 1501.04 1632.63C1508.47 1696.49 1497.13 1750.9 1464.57 1791.31C1432.01 1831.73 1381.26 1854.39 1317.29 1860.72C1253.31 1867.05 1176.16 1857.03 1090.86 1832.12C920.267 1782.29 717.216 1672.91 522.159 1515.77C327.103 1358.63 177.009 1183.51 92.0141 1027.43C49.5161 949.394 23.3053 876.136 15.872 812.281C8.43894 748.428 19.7849 694.017 52.3447 653.601Z" stroke="#DA70D6"/>
<path d="M62.3801 641.364C95.6402 601.523 146.777 579.746 210.849 574.535C274.924 569.324 351.896 580.687 436.745 607.086C606.442 659.882 807.554 772.791 999.838 933.312C1192.12 1093.83 1339.14 1271.54 1421.4 1429.08C1462.52 1507.85 1487.45 1581.55 1493.77 1645.53C1500.09 1709.5 1487.79 1763.71 1454.53 1803.55C1421.27 1843.39 1370.14 1865.17 1306.06 1870.38C1241.99 1875.59 1165.02 1864.23 1080.17 1837.83C910.472 1785.03 709.361 1672.12 517.076 1511.6C324.792 1351.08 177.777 1173.37 95.5192 1015.83C54.3897 937.063 29.4613 863.358 23.1436 799.383C16.8261 735.41 29.1199 681.206 62.3801 641.364Z" stroke="#DA70D6"/>
<path d="M72.6272 629.305C106.578 590.05 158.086 569.168 222.24 565.077C286.396 560.985 363.158 573.689 447.534 601.565C616.283 657.315 815.394 773.717 1004.85 937.569C1194.3 1101.42 1338.19 1281.67 1417.69 1440.62C1457.44 1520.1 1481.07 1594.22 1486.27 1658.3C1491.47 1722.37 1478.24 1776.35 1444.29 1815.61C1410.34 1854.86 1358.83 1875.75 1294.67 1879.84C1230.52 1883.93 1153.76 1871.22 1069.38 1843.35C900.63 1787.6 701.52 1671.2 512.066 1507.35C322.613 1343.49 178.722 1163.24 99.2259 1004.29C59.4774 924.819 35.8392 850.691 30.6389 786.615C25.4388 722.541 38.6768 668.56 72.6272 629.305Z" stroke="#DA70D6"/>
<path d="M83.0834 617.426C117.714 578.77 169.579 558.79 233.794 555.819C298.012 552.847 374.54 566.89 458.417 596.233C626.168 654.92 823.217 774.779 1009.78 941.913C1196.35 1109.05 1337.07 1291.78 1413.78 1452.09C1452.14 1532.25 1474.48 1606.78 1478.56 1670.93C1482.64 1735.09 1468.46 1788.83 1433.83 1827.49C1399.2 1866.14 1347.33 1886.12 1283.12 1889.1C1218.9 1892.07 1142.37 1878.03 1058.5 1848.68C890.746 1789.99 693.697 1670.14 507.132 1503C320.567 1335.87 179.844 1153.14 103.134 992.823C64.7782 912.666 42.4373 838.136 38.3561 773.979C34.275 709.825 48.4531 656.082 83.0834 617.426Z" stroke="#DA70D6"/>
<path d="M93.746 605.73C129.046 567.684 181.252 548.613 245.509 546.763C309.769 544.913 386.04 560.288 469.392 591.091C636.093 652.697 831.02 775.977 1014.64 946.341C1198.26 1116.71 1335.77 1301.87 1409.67 1463.49C1446.62 1544.31 1467.66 1619.21 1470.62 1683.43C1473.58 1747.65 1458.47 1801.14 1423.17 1839.18C1387.87 1877.23 1335.66 1896.3 1271.4 1898.15C1207.14 1900 1130.87 1884.62 1047.52 1853.82C880.821 1792.22 685.894 1668.94 502.274 1498.57C318.655 1328.21 181.142 1143.05 107.242 981.42C70.2909 900.606 49.2541 825.698 46.2932 761.479C43.3325 697.263 58.4463 643.777 93.746 605.73Z" stroke="#DA70D6"/>
<path d="M104.611 594.224C140.569 556.8 193.1 538.642 257.38 537.914C321.662 537.185 397.654 553.89 480.455 586.143C646.056 650.649 838.801 777.311 1019.42 950.854C1200.04 1124.4 1334.3 1311.93 1405.37 1474.82C1440.9 1556.27 1460.63 1631.53 1462.47 1695.79C1464.31 1760.05 1448.26 1813.26 1412.3 1850.69C1376.35 1888.11 1323.81 1906.27 1259.53 1907C1195.25 1907.73 1119.26 1891.02 1036.46 1858.77C870.859 1794.27 678.113 1667.6 497.495 1494.06C316.876 1320.52 182.616 1132.98 111.547 970.092C76.0129 888.645 56.2866 813.381 54.4469 749.121C52.6074 684.863 68.6524 631.648 104.611 594.224Z" stroke="#DA70D6"/>
<path d="M115.674 582.909C152.28 546.118 205.12 528.881 269.402 529.274C333.688 529.668 409.376 547.696 491.602 581.389C656.052 648.775 846.557 778.782 1024.12 955.451C1201.68 1132.12 1332.65 1321.97 1400.86 1486.07C1434.97 1568.13 1453.38 1643.73 1454.1 1708.01C1454.82 1772.29 1437.85 1825.21 1401.24 1862C1364.63 1898.8 1311.79 1916.03 1247.51 1915.64C1183.23 1915.25 1107.54 1897.22 1025.31 1863.53C860.862 1796.14 670.356 1666.13 492.794 1489.46C315.231 1312.8 184.265 1122.95 116.05 958.841C81.9421 876.786 63.5324 801.189 62.8145 736.907C62.0966 672.627 79.0679 619.7 115.674 582.909Z" stroke="#DA70D6"/>
<path d="M126.934 571.788C164.176 535.641 217.309 519.328 281.575 520.844C345.844 522.359 421.206 541.705 502.831 576.829C666.08 647.074 854.288 780.386 1028.74 960.127C1203.19 1139.87 1330.83 1331.97 1396.17 1497.25C1428.84 1579.88 1445.92 1655.79 1445.52 1720.07C1445.11 1784.36 1427.22 1836.98 1389.98 1873.12C1352.74 1909.27 1299.6 1925.58 1235.34 1924.07C1171.07 1922.55 1095.71 1903.21 1014.08 1868.09C850.834 1797.84 662.626 1664.53 488.174 1484.79C313.722 1305.05 186.089 1112.94 120.749 947.669C88.0781 865.031 70.9906 789.125 71.3947 724.84C71.7988 660.557 89.6912 607.934 126.934 571.788Z" stroke="#DA70D6"/>
<path d="M138.386 560.865C176.253 525.374 229.663 509.991 293.892 512.628C358.125 515.265 433.138 535.923 514.138 572.466C676.136 645.55 861.988 782.126 1033.28 964.884C1204.57 1147.64 1328.83 1341.94 1391.27 1508.33C1422.5 1591.53 1438.26 1667.72 1436.73 1731.99C1435.2 1796.25 1416.4 1848.56 1378.53 1884.05C1340.66 1919.54 1287.25 1934.92 1223.02 1932.29C1158.79 1929.65 1083.78 1908.99 1002.78 1872.45C840.778 1799.36 654.926 1662.79 483.637 1480.03C312.349 1297.27 188.087 1102.97 125.642 936.581C94.4182 853.386 78.658 777.193 80.184 712.925C81.7099 648.659 100.518 596.356 138.386 560.865Z" stroke="#DA70D6"/>
<path d="M150.026 550.145C188.508 515.32 242.177 500.871 306.351 504.629C370.528 508.386 445.169 530.351 525.519 568.301C686.217 644.201 869.657 784.001 1037.73 969.72C1205.8 1155.44 1326.65 1351.88 1386.19 1519.33C1415.95 1603.06 1430.38 1679.52 1427.73 1743.75C1425.09 1807.98 1405.37 1859.94 1366.89 1894.77C1328.41 1929.59 1274.74 1944.04 1210.56 1940.29C1146.39 1936.53 1071.74 1914.56 991.395 1876.61C830.697 1800.71 647.257 1660.91 479.184 1475.19C311.111 1289.48 190.26 1093.03 130.727 925.581C100.96 841.853 86.5324 765.397 89.1798 701.165C91.8271 636.935 111.545 584.969 150.026 550.145Z" stroke="#DA70D6"/>
<path d="M161.853 539.628C200.936 505.48 254.849 491.97 318.948 496.847C383.049 501.724 457.296 524.988 536.971 564.335C696.32 643.028 877.292 786.007 1042.1 974.632C1206.9 1163.26 1324.31 1361.78 1380.91 1530.24C1409.21 1614.48 1422.3 1691.17 1418.53 1755.35C1414.77 1819.52 1394.14 1871.14 1355.06 1905.28C1315.98 1939.43 1262.06 1952.94 1197.97 1948.07C1133.86 1943.19 1059.62 1919.93 979.943 1880.58C820.594 1801.89 639.622 1658.91 474.816 1470.28C310.01 1281.66 192.605 1083.14 136.004 914.67C107.703 830.436 94.6117 753.739 98.3796 689.563C102.147 625.39 122.769 573.776 161.853 539.628Z" stroke="#DA70D6"/>
<path d="M173.861 529.319C213.534 495.859 267.675 483.292 331.679 489.287C395.685 495.281 469.514 519.838 548.491 560.569C706.442 642.031 884.892 788.147 1046.38 979.62C1207.87 1171.09 1321.79 1371.63 1375.44 1541.06C1402.27 1625.77 1414.02 1702.69 1409.13 1766.79C1404.25 1830.89 1382.73 1882.13 1343.05 1915.59C1303.38 1949.05 1249.24 1961.62 1185.24 1955.63C1121.23 1949.63 1047.4 1925.07 968.424 1884.34C810.473 1802.88 632.023 1656.77 470.534 1465.29C309.045 1273.82 195.123 1073.28 141.471 903.853C114.644 819.138 102.893 742.225 107.781 678.124C112.668 614.026 134.187 562.78 173.861 529.319Z" stroke="#DA70D6"/>
<path d="M186.046 519.223C226.297 486.46 280.65 474.84 344.539 481.951C408.431 489.062 481.82 514.903 560.074 557.006C716.579 641.213 892.452 790.421 1050.57 984.682C1208.7 1178.94 1319.1 1381.44 1369.79 1551.78C1395.13 1636.95 1405.54 1714.06 1399.53 1778.06C1393.53 1842.06 1371.12 1892.93 1330.87 1925.69C1290.62 1958.45 1236.26 1970.07 1172.37 1962.96C1108.48 1955.85 1035.09 1930.01 956.84 1887.91C800.335 1803.7 624.462 1654.49 466.339 1460.23C308.217 1265.97 197.812 1063.47 147.125 893.135C121.781 807.964 111.374 730.857 117.379 666.852C123.384 602.849 145.795 551.986 186.046 519.223Z" stroke="#DA70D6"/>
<path d="M198.406 509.341C239.223 477.285 293.77 466.616 357.525 474.84C421.284 483.065 494.211 510.183 571.718 553.646C726.729 640.571 899.971 792.826 1054.68 989.817C1209.39 1186.81 1316.24 1391.2 1363.95 1562.4C1387.8 1648 1396.86 1725.27 1389.74 1789.17C1382.62 1853.05 1359.32 1903.52 1318.51 1935.57C1277.69 1967.63 1223.14 1978.3 1159.39 1970.07C1095.63 1961.85 1022.7 1934.73 945.196 1891.27C790.184 1804.34 616.942 1652.09 462.234 1455.1C307.525 1258.11 200.671 1053.71 152.965 882.516C129.111 796.916 120.052 719.64 127.173 655.749C134.294 591.86 157.589 541.396 198.406 509.341Z" stroke="#DA70D6"/>
<path d="M210.938 499.674C252.308 468.336 307.032 458.62 370.635 467.956C434.24 477.292 506.682 505.679 583.419 550.488C736.89 640.105 907.448 795.36 1058.69 995.022C1209.94 1194.68 1313.21 1400.91 1357.92 1572.91C1380.28 1658.92 1387.99 1736.34 1379.75 1800.1C1371.52 1863.85 1347.35 1913.9 1305.98 1945.24C1264.61 1976.58 1209.88 1986.29 1146.28 1976.96C1082.67 1967.62 1010.23 1939.23 933.495 1894.43C780.024 1804.81 609.466 1649.55 458.219 1449.89C306.972 1250.23 203.702 1044 158.99 872C136.634 785.997 128.925 708.574 137.16 644.817C145.395 581.062 169.568 531.013 210.938 499.674Z" stroke="#DA70D6"/>
<path d="M223.635 490.229C265.546 459.617 320.432 450.858 383.862 461.302C447.294 471.748 519.23 501.394 595.173 547.535C747.057 639.817 914.879 798.025 1062.62 1000.3C1210.36 1202.57 1310.01 1410.56 1351.72 1583.32C1372.57 1669.7 1378.92 1747.25 1369.58 1810.85C1360.23 1874.45 1335.19 1924.07 1293.28 1954.68C1251.37 1985.3 1196.48 1994.05 1133.05 1983.61C1069.62 1973.16 997.684 1943.52 921.741 1897.38C769.857 1805.1 602.035 1646.89 454.296 1444.62C306.556 1242.35 206.901 1034.35 165.198 861.591C144.346 775.211 137.989 697.665 147.336 634.062C156.683 570.461 181.725 520.84 223.635 490.229Z" stroke="#DA70D6"/>
<path d="M236.496 481.007C278.934 451.131 333.965 443.331 397.203 454.881C460.443 466.432 531.851 497.329 606.977 544.789C757.227 639.707 922.263 800.821 1066.45 1005.64C1210.64 1210.46 1306.65 1420.16 1345.33 1593.62C1364.67 1680.35 1369.67 1758 1359.22 1821.43C1348.76 1884.86 1322.86 1934.03 1280.42 1963.91C1237.98 1993.78 1182.95 2001.58 1119.71 1990.03C1056.47 1978.48 985.063 1947.59 909.937 1900.13C759.687 1805.21 594.651 1644.09 450.465 1439.28C306.278 1234.46 210.268 1024.75 171.586 851.293C152.245 764.562 147.243 686.917 157.698 623.486C168.153 560.058 194.057 510.882 236.496 481.007Z" stroke="#DA70D6"/>
<path d="M249.516 472.01C292.469 442.88 347.627 436.041 410.654 448.693C473.683 461.346 544.541 493.485 618.827 542.248C767.398 639.775 929.596 803.744 1070.19 1011.05C1210.78 1218.35 1303.11 1429.7 1338.76 1603.81C1356.58 1690.86 1360.23 1768.58 1348.67 1831.82C1337.11 1895.06 1310.35 1943.77 1267.4 1972.9C1224.45 2002.03 1169.29 2008.87 1106.26 1996.22C1043.23 1983.57 972.373 1951.43 898.087 1902.67C749.517 1805.14 587.318 1641.17 446.728 1433.87C306.138 1226.56 213.802 1015.22 178.153 841.107C160.329 754.051 156.682 676.331 168.243 613.093C179.804 549.857 206.562 501.141 249.516 472.01Z" stroke="#DA70D6"/>
<path d="M262.691 463.241C306.146 434.865 361.415 428.99 424.211 442.74C487.01 456.491 557.296 489.862 630.72 539.914C777.566 640.019 936.878 806.793 1073.83 1016.52C1210.78 1226.24 1299.41 1439.17 1332.02 1613.88C1348.32 1701.23 1350.61 1779 1337.95 1842.03C1325.28 1905.05 1297.68 1953.29 1254.22 1981.67C1210.77 2010.05 1155.5 2015.92 1092.7 2002.17C1029.9 1988.42 959.619 1955.05 886.195 1905C739.349 1804.89 580.037 1638.12 443.086 1428.39C306.135 1218.67 217.502 1005.74 184.898 831.036C168.595 743.683 166.305 665.911 178.968 602.884C191.631 539.859 219.235 491.618 262.691 463.241Z" stroke="#DA70D6"/>
<path d="M276.016 454.705C319.96 427.092 375.323 422.182 437.87 437.026C500.419 451.871 570.112 486.463 642.651 537.789C787.727 640.441 944.105 809.971 1077.37 1022.05C1210.64 1234.14 1295.55 1448.58 1325.1 1623.83C1339.87 1711.45 1340.81 1789.25 1327.04 1852.05C1313.28 1914.84 1284.84 1962.59 1240.9 1990.21C1196.95 2017.82 1141.59 2022.73 1079.04 2007.89C1016.5 1993.04 946.802 1958.45 874.263 1907.12C729.187 1804.47 572.809 1634.94 439.54 1422.86C306.27 1210.78 221.366 996.333 191.816 821.086C177.041 733.462 176.108 655.662 189.869 592.865C203.63 530.071 232.072 482.319 276.016 454.705Z" stroke="#DA70D6"/>
<path d="M289.489 446.402C333.908 419.56 389.348 415.617 451.626 431.55C513.907 447.484 582.986 483.287 654.618 535.872C797.881 641.04 951.276 813.273 1080.82 1027.65C1210.37 1242.03 1291.52 1457.92 1318.01 1633.65C1331.25 1721.52 1330.82 1799.33 1315.97 1861.87C1301.12 1924.42 1271.85 1971.67 1227.43 1998.51C1183.01 2025.35 1127.57 2029.29 1065.29 2013.36C1003.01 1997.43 933.929 1961.63 862.297 1909.04C719.034 1803.87 565.639 1631.64 436.091 1417.26C306.543 1202.89 225.394 986.993 198.907 811.258C185.663 723.389 186.089 645.584 200.944 583.038C215.798 520.493 245.069 473.244 289.489 446.402Z" stroke="#DA70D6"/>
<path d="M303.104 438.335C347.985 412.272 403.486 409.298 465.476 426.316C527.469 443.334 595.913 480.337 666.616 534.164C808.022 641.817 958.388 816.701 1084.17 1033.31C1209.96 1249.91 1287.33 1467.19 1310.75 1643.36C1322.45 1731.44 1320.67 1809.23 1304.73 1871.51C1288.78 1933.78 1258.69 1980.51 1213.81 2006.58C1168.93 2032.64 1113.43 2035.61 1051.44 2018.6C989.445 2001.58 921.002 1964.57 850.298 1910.75C708.893 1803.1 558.527 1628.21 432.74 1411.61C306.953 1195 229.585 977.726 206.169 801.555C194.461 713.468 196.244 635.683 212.188 573.405C228.132 511.129 258.223 464.399 303.104 438.335Z" stroke="#DA70D6"/>
<path d="M316.858 430.509C362.187 405.233 417.731 403.228 479.415 421.325C541.102 439.423 608.889 477.615 678.642 532.667C818.147 642.771 965.438 820.253 1087.43 1039.02C1209.41 1257.79 1282.98 1476.38 1303.32 1652.93C1313.48 1741.21 1310.34 1818.95 1293.31 1880.94C1276.29 1942.93 1245.39 1989.13 1200.06 2014.4C1154.73 2039.68 1099.18 2041.69 1037.5 2023.59C975.812 2005.49 908.025 1967.3 838.272 1912.25C698.766 1802.14 551.475 1624.66 429.488 1405.89C307.501 1187.13 233.936 968.534 213.598 791.981C203.429 703.704 206.57 625.961 223.598 563.971C240.626 501.983 271.529 455.785 316.858 430.509Z" stroke="#DA70D6"/>
<path d="M330.746 422.923C376.509 398.442 432.08 397.406 493.439 416.577C554.8 435.749 621.911 475.118 690.693 531.38C828.255 643.901 972.426 823.926 1090.58 1044.79C1208.73 1265.65 1278.47 1485.5 1295.72 1662.38C1304.35 1750.82 1299.85 1828.49 1281.74 1890.18C1263.63 1951.86 1231.93 1997.51 1186.17 2021.99C1140.4 2046.47 1084.83 2047.51 1023.47 2028.34C962.113 2009.17 895.003 1969.8 826.221 1913.54C688.658 1801.01 544.487 1620.99 426.337 1400.12C308.186 1179.26 238.448 959.419 221.194 782.538C212.567 694.096 217.064 616.42 235.172 554.737C253.279 493.056 284.983 447.404 330.746 422.923Z" stroke="#DA70D6"/>
<path d="M344.765 415.58C390.949 391.901 446.529 391.836 507.544 412.075C568.561 432.314 634.974 472.849 702.764 530.302C838.342 645.208 979.349 827.721 1093.63 1050.61C1207.91 1273.5 1273.8 1494.53 1287.96 1671.69C1295.04 1760.27 1289.19 1837.85 1270.01 1899.21C1250.83 1960.56 1218.33 2005.66 1172.15 2029.33C1125.97 2053.01 1070.38 2053.08 1009.37 2032.84C948.352 2012.6 881.939 1972.07 814.149 1914.61C678.572 1799.71 537.565 1617.19 423.286 1394.3C309.008 1171.41 243.117 950.383 228.953 773.228C221.871 684.65 227.723 607.064 246.905 545.706C266.086 484.35 298.582 439.258 344.765 415.58Z" stroke="#DA70D6"/>
<path d="M358.911 408.482C405.5 385.613 461.074 386.518 521.726 407.818C582.381 429.12 648.076 470.807 714.853 529.435C848.404 646.689 986.205 831.636 1096.58 1056.49C1206.95 1281.34 1268.97 1503.48 1280.04 1680.86C1285.57 1769.55 1278.37 1847.02 1258.12 1908.03C1237.87 1969.04 1204.59 2013.56 1158 2036.43C1111.41 2059.3 1055.84 2058.39 995.188 2037.09C934.534 2015.79 868.838 1974.11 802.062 1915.48C668.51 1798.22 530.71 1613.28 420.339 1388.43C309.968 1163.57 247.945 941.43 236.875 764.055C231.34 675.366 238.545 597.895 258.794 536.881C279.043 475.869 312.321 431.351 358.911 408.482Z" stroke="#DA70D6"/>
<path d="M373.177 401.635C420.158 379.582 475.707 381.457 535.979 403.812C596.252 426.169 661.21 468.997 726.954 528.781C858.439 648.348 992.99 835.672 1099.42 1062.42C1205.85 1289.16 1263.99 1512.35 1271.96 1689.89C1275.95 1778.66 1267.39 1856 1246.08 1916.65C1224.77 1977.3 1190.72 2021.23 1143.74 2043.28C1096.76 2065.33 1041.21 2063.46 980.934 2041.1C920.66 2018.75 855.703 1975.92 789.959 1916.14C658.475 1796.57 523.923 1609.24 417.493 1382.5C311.063 1155.76 252.926 932.565 244.954 755.023C240.967 666.252 249.523 588.918 270.835 528.266C292.145 467.617 326.195 423.687 373.177 401.635Z" stroke="#DA70D6"/>
<path d="M387.561 395.035C434.92 373.806 490.428 376.649 550.3 400.054C610.174 423.459 674.375 467.414 739.065 528.336C868.443 650.18 999.705 839.823 1102.16 1068.39C1204.62 1296.96 1258.85 1521.13 1263.72 1698.78C1266.16 1787.61 1256.25 1864.78 1233.89 1925.05C1211.52 1985.32 1176.71 2028.65 1129.35 2049.88C1081.99 2071.11 1026.49 2068.27 966.613 2044.86C906.739 2021.46 842.538 1977.5 777.848 1916.58C648.47 1794.74 517.208 1605.09 414.752 1376.52C312.296 1147.96 258.063 923.786 253.19 746.132C250.753 657.304 260.658 580.131 283.024 519.861C305.39 459.593 340.201 416.264 387.561 395.035Z" stroke="#DA70D6"/>
<path d="M402.058 388.688C449.78 368.289 505.23 372.1 564.685 396.546C624.141 420.993 687.565 466.061 751.182 528.104C878.414 652.187 1006.35 844.092 1104.8 1074.41C1203.25 1304.73 1253.56 1529.82 1255.33 1707.53C1256.22 1796.39 1244.97 1873.37 1221.55 1933.24C1198.14 1993.11 1162.58 2035.83 1114.86 2056.23C1067.13 2076.63 1011.68 2072.81 952.228 2048.37C892.772 2023.92 829.348 1978.85 765.731 1916.81C638.499 1792.73 510.567 1600.82 412.116 1370.5C313.664 1140.18 263.352 915.098 261.58 737.386C260.694 648.53 271.944 571.541 295.359 511.671C318.773 451.802 354.335 409.087 402.058 388.688Z" stroke="#DA70D6"/>
<path d="M416.663 382.595C464.735 363.032 520.109 367.811 579.128 393.29C638.149 418.771 700.777 464.939 763.301 528.082C888.348 654.367 1012.91 848.476 1107.33 1080.48C1201.75 1312.48 1248.12 1538.41 1246.79 1716.13C1246.13 1804.99 1233.53 1881.76 1209.08 1941.22C1184.62 2000.67 1148.32 2042.76 1100.25 2062.32C1052.18 2081.88 996.804 2077.1 937.785 2051.62C878.764 2026.14 816.136 1979.98 753.612 1916.83C628.565 1790.55 504.002 1596.44 409.585 1364.44C315.167 1132.43 268.791 906.504 270.121 728.789C270.786 639.93 283.378 563.15 307.834 503.697C332.29 444.246 368.592 402.158 416.663 382.595Z" stroke="#DA70D6"/>
<path d="M431.373 376.757C479.779 358.036 535.061 363.781 593.627 390.286C652.194 416.793 714.006 464.048 775.419 528.272C898.243 656.72 1019.4 852.973 1109.75 1086.59C1200.11 1320.21 1242.53 1546.91 1238.1 1724.57C1235.89 1813.41 1221.96 1889.96 1196.47 1948.97C1170.98 2007.99 1133.95 2049.43 1085.54 2068.16C1037.14 2086.88 981.852 2081.13 923.286 2054.63C864.719 2028.12 802.907 1980.87 741.494 1916.64C618.67 1788.19 497.513 1591.94 407.16 1358.33C316.806 1124.71 274.38 898.006 278.811 720.341C281.027 631.507 294.957 554.958 320.447 495.942C345.936 436.927 382.968 395.479 431.373 376.757Z" stroke="#DA70D6"/>
<path d="M446.182 371.178C494.907 353.304 550.081 360.013 608.175 387.537C666.271 415.061 727.249 463.388 787.532 528.674C908.095 659.246 1025.81 857.584 1112.07 1092.74C1198.33 1327.9 1236.8 1555.31 1229.27 1732.87C1225.5 1821.65 1210.24 1897.94 1183.72 1956.51C1157.2 2015.07 1119.46 2055.86 1070.73 2073.74C1022.01 2091.61 966.832 2084.9 908.738 2057.38C850.642 2029.85 789.664 1981.53 729.382 1916.24C608.818 1785.67 491.105 1587.33 404.842 1352.17C318.579 1117.02 280.116 889.608 287.647 712.047C291.413 623.265 306.677 546.971 333.193 488.408C359.708 429.847 397.458 389.052 446.182 371.178Z" stroke="#DA70D6"/>
<path d="M461.087 365.858C510.116 348.837 565.165 356.508 622.769 385.041C680.376 413.576 740.501 462.959 799.635 529.288C917.902 661.943 1032.14 862.305 1114.28 1098.93C1196.43 1335.56 1230.92 1563.61 1220.29 1741.01C1214.97 1829.71 1198.38 1905.72 1170.84 1963.82C1143.31 2021.91 1104.86 2062.04 1055.83 2079.06C1006.8 2096.08 951.748 2088.41 894.144 2059.87C836.537 2031.34 776.412 1981.96 717.278 1915.63C599.011 1782.97 484.778 1582.61 402.632 1345.98C320.486 1109.36 285.998 881.31 296.627 703.908C301.942 615.205 318.534 539.19 346.069 481.098C373.602 423.009 412.057 382.878 461.087 365.858Z" stroke="#DA70D6"/>
<path d="M476.082 360.799C525.401 344.636 580.307 353.266 637.405 382.801C694.505 412.336 753.759 462.761 811.727 530.112C927.66 664.812 1038.38 867.137 1116.38 1105.16C1194.39 1343.19 1224.89 1571.8 1211.17 1748.99C1204.3 1837.58 1186.39 1913.3 1157.84 1970.9C1129.3 2028.5 1090.15 2067.95 1040.83 2084.12C991.513 2100.28 936.606 2091.65 879.508 2062.11C822.408 2032.58 763.154 1982.15 705.187 1914.8C589.254 1780.1 478.534 1577.78 400.531 1339.75C322.527 1101.73 292.024 873.117 305.748 695.927C312.609 607.331 330.526 531.616 359.07 474.014C387.613 416.414 426.763 376.961 476.082 360.799Z" stroke="#DA70D6"/>
<path d="M491.163 356.001C540.757 340.702 595.504 350.289 652.078 380.815C708.654 411.343 767.019 462.794 823.802 531.146C937.367 667.849 1044.54 872.075 1118.38 1111.43C1192.21 1350.77 1218.72 1579.89 1201.91 1756.81C1193.5 1845.27 1174.27 1920.66 1144.72 1977.76C1115.18 2034.85 1075.34 2073.61 1025.75 2088.91C976.158 2104.21 921.41 2094.62 864.836 2064.1C808.26 2033.57 749.895 1982.12 693.112 1913.77C579.547 1777.07 472.376 1572.84 398.538 1333.49C324.701 1094.14 298.192 865.029 315.006 688.105C323.413 599.643 342.649 524.252 372.194 467.157C401.737 410.064 441.57 371.3 491.163 356.001Z" stroke="#DA70D6"/>
<path d="M506.325 351.469C556.178 337.038 610.75 347.578 666.782 379.088C722.817 410.598 780.275 463.06 835.857 532.393C947.018 671.057 1050.61 877.122 1120.26 1117.72C1189.91 1358.33 1212.41 1587.86 1192.51 1764.47C1182.56 1852.77 1162.02 1927.81 1131.48 1984.38C1100.94 2040.95 1060.44 2079.01 1010.59 2093.45C960.736 2107.88 906.163 2097.34 850.131 2065.83C794.097 2034.32 736.638 1981.86 681.057 1912.52C569.895 1773.86 466.304 1567.79 396.655 1327.19C327.006 1086.59 304.5 857.051 324.399 680.448C334.348 592.146 354.897 517.102 385.434 460.532C415.97 403.963 456.472 365.9 506.325 351.469Z" stroke="#DA70D6"/>
<path d="M521.565 347.2C571.662 333.642 626.041 345.133 681.515 377.615C736.991 410.099 793.525 463.556 847.888 533.848C956.613 674.431 1056.59 882.273 1122.03 1124.05C1187.47 1365.83 1205.97 1595.73 1182.99 1771.96C1171.5 1860.07 1149.64 1934.75 1118.13 1990.78C1086.61 2046.8 1045.45 2084.15 995.349 2097.71C945.252 2111.27 890.872 2099.78 835.398 2067.3C779.922 2034.81 723.388 1981.36 669.025 1911.07C560.301 1770.48 460.322 1562.64 394.882 1320.86C329.443 1079.08 310.946 849.184 333.924 672.955C345.414 584.839 367.269 510.166 398.788 454.137C430.307 398.11 471.467 360.76 521.565 347.2Z" stroke="#DA70D6"/>
<path d="M536.876 343.2C587.202 330.518 641.373 342.957 696.271 376.402C751.172 409.849 806.764 464.284 859.892 535.514C966.147 677.973 1062.48 887.529 1123.69 1130.41C1184.9 1373.3 1199.38 1603.48 1173.33 1779.29C1160.31 1867.19 1137.15 1941.47 1104.66 1996.94C1072.17 2052.41 1030.36 2089.03 980.038 2101.71C929.711 2114.4 875.54 2101.96 820.642 2068.51C765.741 2035.07 710.149 1980.63 657.021 1909.4C550.766 1766.94 454.43 1557.39 393.22 1314.5C332.011 1071.61 317.529 841.431 343.579 665.63C356.604 577.729 379.759 503.448 412.252 447.977C444.743 392.509 486.55 355.883 536.876 343.2Z" stroke="#DA70D6"/>
<path d="M552.255 339.467C602.795 327.665 656.74 341.047 711.046 375.446C765.355 409.845 819.989 465.243 871.866 537.389C975.618 681.681 1068.28 892.886 1125.24 1136.8C1182.2 1380.72 1192.67 1611.12 1163.55 1786.44C1149 1874.1 1124.55 1947.97 1091.09 2002.86C1057.64 2057.75 1015.2 2093.65 964.659 2105.45C914.119 2117.25 860.173 2103.87 805.867 2069.47C751.558 2035.07 696.924 1979.67 645.047 1907.53C541.295 1763.23 448.631 1552.03 391.669 1308.11C334.708 1064.2 324.246 833.794 353.36 658.474C367.918 570.813 392.365 496.948 425.821 442.053C459.276 387.16 501.715 351.269 552.255 339.467Z" stroke="#DA70D6"/>
<path d="M567.697 336.003C618.435 325.084 672.138 339.406 725.836 374.747C779.536 410.089 833.195 466.432 883.805 539.473C985.023 685.553 1073.99 898.343 1126.68 1143.22C1179.38 1388.09 1185.82 1618.64 1153.65 1793.43C1137.56 1880.82 1111.83 1954.24 1077.42 2008.55C1043.01 2062.85 999.956 2097.99 949.217 2108.91C898.479 2119.83 844.775 2105.51 791.077 2070.17C737.377 2034.83 683.719 1978.48 633.109 1905.44C531.891 1759.36 442.926 1546.57 390.231 1301.7C337.535 1056.82 331.095 826.275 363.265 651.49C379.35 564.097 405.083 490.67 439.492 436.367C473.899 382.066 516.959 346.921 567.697 336.003Z" stroke="#DA70D6"/>
<path d="M583.197 332.809C634.117 322.777 687.563 338.034 740.636 374.307C793.71 410.581 846.378 467.851 895.705 541.765C994.359 689.589 1079.6 903.899 1128.01 1149.66C1176.42 1395.41 1178.84 1626.04 1143.62 1800.24C1126.02 1887.33 1099 1960.3 1063.65 2013.99C1028.3 2067.69 984.638 2102.07 933.718 2112.11C882.796 2122.14 829.35 2106.88 776.277 2070.61C723.203 2034.33 670.535 1977.06 621.208 1903.15C522.555 1755.33 437.318 1541.02 388.904 1295.26C340.49 1049.5 338.074 818.877 373.29 644.68C390.898 557.581 417.908 484.614 453.259 430.92C488.609 377.228 532.275 342.84 583.197 332.809Z" stroke="#DA70D6"/>
<path d="M598.75 329.885C649.838 320.744 703.009 336.931 755.441 374.125C807.874 411.32 859.534 469.501 907.564 544.263C1003.62 693.787 1085.11 909.552 1129.22 1156.12C1173.34 1402.68 1171.73 1633.31 1133.48 1806.87C1114.36 1893.65 1086.08 1966.13 1049.79 2019.2C1013.51 2072.27 969.253 2105.89 918.164 2115.03C867.076 2124.17 813.904 2107.98 761.473 2070.79C709.039 2033.59 657.379 1975.41 609.349 1900.65C513.291 1751.13 431.807 1535.36 387.689 1288.8C343.572 1042.23 345.182 811.601 383.432 638.046C402.557 551.267 430.837 478.783 467.12 425.714C503.402 372.647 547.661 339.026 598.75 329.885Z" stroke="#DA70D6"/>
<path d="M614.352 327.234C665.592 318.986 718.472 336.099 770.246 374.201C822.023 412.306 872.66 471.379 919.377 546.969C1012.81 698.146 1090.52 915.301 1130.33 1162.6C1170.13 1409.89 1164.5 1640.46 1123.22 1813.33C1102.59 1899.76 1073.05 1971.74 1035.84 2024.16C998.641 2076.59 953.803 2109.43 902.563 2117.68C851.322 2125.93 798.441 2108.82 746.667 2070.71C694.89 2032.61 644.254 1973.54 597.536 1897.95C504.102 1746.77 426.396 1529.61 386.588 1282.32C346.78 1035.02 352.415 804.451 393.688 631.59C414.325 545.158 443.866 473.178 481.07 420.751C518.272 368.325 563.111 335.482 614.352 327.234Z" stroke="#DA70D6"/>
<path d="M629.997 324.855C681.374 317.502 733.947 335.535 785.049 374.536C836.153 413.538 885.75 473.486 931.142 549.88C1021.92 702.665 1095.83 921.143 1131.31 1169.1C1166.8 1417.05 1157.14 1647.49 1112.86 1819.6C1090.71 1905.66 1059.92 1977.11 1021.81 2028.88C983.698 2080.65 938.293 2112.71 886.917 2120.06C835.541 2127.41 782.966 2109.38 731.864 2070.38C680.761 2031.38 631.163 1971.43 585.772 1895.03C494.99 1742.25 421.086 1523.77 385.6 1275.82C350.114 1027.86 359.772 797.428 404.056 625.313C426.198 539.255 456.991 467.802 495.104 416.031C533.215 364.263 578.621 332.207 629.997 324.855Z" stroke="#DA70D6"/>
<path d="M645.682 322.75C697.179 316.295 749.43 335.243 799.843 375.129C850.258 415.017 898.802 475.822 942.854 552.996C1030.95 707.342 1101.03 927.076 1132.19 1175.61C1163.34 1424.15 1149.66 1654.38 1102.38 1825.7C1078.74 1911.35 1046.71 1982.26 1007.7 2033.36C968.686 2084.45 922.729 2115.71 871.232 2122.16C819.735 2128.62 767.483 2109.67 717.07 2069.78C666.655 2029.9 618.111 1969.09 574.06 1891.92C485.958 1737.57 415.878 1517.84 384.725 1269.3C353.572 1020.77 367.251 790.535 414.532 619.219C438.172 533.56 470.207 462.655 509.218 411.558C548.227 360.463 594.185 329.204 645.682 322.75Z" stroke="#DA70D6"/>
<path d="M661.401 320.918C713.003 315.363 764.915 335.22 814.625 375.981C864.336 416.743 911.812 478.385 954.509 556.316C1039.9 712.177 1106.14 933.1 1132.95 1182.14C1159.76 1431.18 1142.06 1661.14 1091.8 1831.61C1066.67 1916.84 1033.4 1987.17 993.505 2037.58C953.61 2087.99 907.114 2118.44 855.513 2124C803.911 2129.55 751.998 2109.69 702.288 2068.93C652.577 2028.17 605.102 1966.53 562.404 1888.6C477.01 1732.74 410.775 1511.81 383.965 1262.77C357.154 1013.73 374.849 783.773 425.112 613.309C450.244 528.076 483.512 457.74 523.408 407.332C563.303 356.925 609.8 326.474 661.401 320.918Z" stroke="#DA70D6"/>
<path d="M677.15 319.363C728.841 314.709 780.398 335.469 829.389 377.091C878.381 418.714 924.774 481.176 966.105 559.84C1048.77 717.167 1111.13 939.213 1133.59 1188.68C1156.06 1438.15 1134.35 1667.77 1081.12 1837.33C1054.5 1922.11 1020.01 1991.86 979.243 2041.56C938.475 2091.26 891.454 2120.9 839.764 2125.55C788.073 2130.21 736.514 2109.45 687.524 2067.82C638.531 2026.2 592.139 1963.74 550.808 1885.08C468.147 1727.75 405.778 1505.7 383.318 1256.23C360.858 1006.76 382.563 777.146 435.794 607.585C462.41 522.803 496.899 453.059 537.669 403.354C578.438 353.652 625.459 324.016 677.15 319.363Z" stroke="#DA70D6"/>
<path d="M692.924 318.08C744.688 314.329 795.876 335.986 844.132 378.456C892.391 420.928 937.686 484.19 977.638 563.564C1057.54 722.309 1116.02 945.41 1134.13 1195.23C1152.23 1445.06 1126.52 1674.26 1070.34 1842.87C1042.25 1927.17 1006.55 1996.3 964.915 2045.29C923.285 2094.27 875.754 2123.08 823.991 2126.83C772.227 2130.58 721.038 2108.93 672.781 2066.46C624.523 2023.98 579.228 1960.72 539.276 1881.35C459.373 1722.6 400.889 1499.5 382.786 1249.68C364.683 999.854 390.392 770.652 446.574 602.046C474.666 517.741 510.368 448.61 551.999 399.625C593.629 350.641 641.16 321.831 692.924 318.08Z" stroke="#DA70D6"/>
<path d="M708.718 317.074C760.539 314.227 811.341 336.774 858.849 380.08C906.359 423.387 950.543 487.43 989.104 567.489C1066.22 727.605 1120.81 951.692 1134.55 1201.8C1148.29 1451.9 1118.58 1680.62 1059.46 1848.22C1029.91 1932.02 993.003 2000.51 950.523 2048.77C908.045 2097.02 860.019 2124.99 808.197 2127.84C756.376 2130.69 705.573 2108.14 658.065 2064.83C610.555 2021.53 566.37 1957.48 527.81 1877.42C450.69 1717.31 396.108 1493.22 382.368 1243.12C368.628 993.015 398.334 764.297 457.45 596.697C487.008 512.896 523.911 444.398 566.391 396.147C608.869 347.897 656.896 319.921 708.718 317.074Z" stroke="#DA70D6"/>
<path d="M724.526 316.345C776.389 314.403 826.79 337.833 873.535 381.961C920.282 426.091 963.342 490.896 1000.5 571.615C1074.81 733.053 1125.48 958.058 1134.85 1208.36C1144.22 1458.67 1110.53 1686.83 1048.5 1853.38C1017.48 1936.65 979.388 2004.49 936.072 2051.99C892.759 2099.49 844.251 2126.63 792.388 2128.57C740.525 2130.51 690.123 2107.08 643.378 2062.95C596.631 2018.82 553.571 1954.02 516.414 1873.3C442.1 1711.86 391.438 1486.86 382.065 1236.55C372.692 986.248 406.384 758.083 468.416 591.54C499.433 508.268 537.525 440.424 580.841 392.922C624.155 345.421 672.663 318.287 724.526 316.345Z" stroke="#DA70D6"/>
<path d="M740.345 315.89C792.235 314.853 842.219 339.159 888.186 384.097C934.156 429.036 976.078 494.582 1011.82 575.938C1083.31 738.648 1130.03 964.503 1135.04 1214.93C1140.04 1465.36 1102.37 1692.91 1037.44 1858.34C1004.98 1941.06 965.706 2008.23 921.568 2054.97C877.432 2101.7 828.459 2127.99 776.569 2129.02C724.68 2130.06 674.695 2105.75 628.727 2060.82C582.758 2015.88 540.835 1950.33 505.092 1868.98C433.607 1706.27 386.879 1480.41 381.876 1229.98C376.873 979.551 414.542 752.009 479.472 586.574C511.937 503.855 551.208 436.687 595.345 389.947C639.482 343.209 688.456 316.926 740.345 315.89Z" stroke="#DA70D6"/>
<path d="M756.17 315.712C808.069 315.581 857.622 340.755 902.798 386.488C947.976 432.223 988.748 498.491 1023.07 580.458C1091.7 744.391 1134.48 971.028 1135.11 1221.51C1135.74 1471.99 1094.11 1698.84 1026.3 1863.11C992.398 1945.25 951.961 2011.72 907.014 2057.69C862.069 2103.65 812.644 2129.07 760.745 2129.2C708.845 2129.33 659.292 2104.16 614.116 2058.42C568.937 2012.69 528.165 1946.42 493.848 1864.46C425.213 1700.52 382.434 1473.89 381.802 1223.41C381.17 972.928 422.805 746.078 490.612 581.801C524.516 499.662 564.953 433.19 609.9 387.227C654.845 341.267 704.27 315.843 756.17 315.712Z" stroke="#DA70D6"/>
<path d="M771.995 315.81C823.889 316.585 872.994 342.621 917.366 389.135C961.739 435.652 1001.35 502.621 1034.23 585.174C1099.99 750.28 1138.81 977.629 1135.07 1228.08C1131.33 1478.53 1085.74 1704.62 1015.08 1867.69C979.748 1949.22 938.157 2014.98 892.415 2060.15C846.674 2105.32 796.813 2129.88 744.919 2129.1C693.025 2128.33 643.919 2102.29 599.548 2055.78C555.175 2009.26 515.565 1942.29 482.683 1859.74C416.92 1694.63 378.103 1467.29 381.843 1216.83C385.583 966.382 431.17 740.293 501.833 577.225C537.165 495.69 578.757 429.933 624.499 384.762C670.239 339.593 720.101 315.035 771.995 315.81Z" stroke="#DA70D6"/>
<path d="M787.816 316.184C839.688 317.865 888.332 344.754 931.885 392.035C975.44 439.319 1013.87 506.969 1045.31 590.084C1108.18 756.312 1143.03 984.304 1134.91 1234.65C1126.8 1485 1077.28 1710.26 1003.78 1872.07C967.03 1952.98 924.298 2018 877.774 2062.36C831.253 2106.73 780.971 2130.41 729.098 2128.73C677.226 2127.05 628.582 2100.16 585.029 2052.88C541.474 2005.59 503.039 1937.94 471.603 1854.83C408.732 1688.6 373.888 1460.61 381.998 1210.26C390.108 959.913 439.635 734.654 513.133 572.844C549.883 491.938 592.615 426.917 639.139 382.552C685.661 338.188 735.943 314.504 787.816 316.184Z" stroke="#DA70D6"/>
<path d="M803.628 316.837C855.463 319.422 903.63 347.156 946.351 395.19C989.074 443.227 1026.32 511.537 1056.3 595.188C1116.26 762.488 1147.12 991.053 1134.64 1241.22C1122.17 1491.39 1068.72 1715.75 992.405 1876.25C954.249 1956.51 910.388 2020.77 863.097 2064.32C815.808 2107.86 765.121 2130.67 713.286 2128.08C661.45 2125.49 613.283 2097.76 570.561 2049.73C527.839 2001.69 490.591 1933.38 460.61 1849.73C400.649 1682.43 369.79 1453.86 382.268 1203.7C394.746 953.526 448.196 729.166 524.507 568.663C562.664 488.411 606.524 424.146 653.815 380.599C701.104 337.054 751.792 314.251 803.628 316.837Z" stroke="#DA70D6"/>
<path d="M819.427 317.762C871.209 321.251 918.884 349.821 960.76 398.594C1002.64 447.369 1038.69 516.319 1067.2 600.481C1124.24 768.802 1151.1 997.871 1134.26 1247.78C1117.42 1497.7 1060.06 1721.09 980.959 1880.24C941.409 1959.81 896.433 2023.3 848.389 2066.01C800.348 2108.73 749.27 2130.64 697.488 2127.15C645.705 2123.66 598.029 2095.09 556.153 2046.32C514.275 1997.55 478.225 1928.6 449.708 1844.43C392.676 1676.11 365.811 1447.04 382.653 1197.13C399.495 947.218 456.853 723.825 535.954 564.679C575.505 485.104 620.48 421.615 668.524 378.9C716.566 336.187 767.644 314.272 819.427 317.762Z" stroke="#DA70D6"/>
<path d="M835.206 318.964C886.919 323.357 934.089 352.755 975.108 402.251C1016.13 451.749 1050.97 521.318 1078.01 605.965C1132.1 775.255 1154.96 1004.76 1133.76 1254.34C1112.56 1503.92 1051.31 1726.28 969.445 1884.02C928.512 1962.89 882.435 2025.59 833.653 2067.46C784.873 2109.32 733.421 2130.34 681.708 2125.95C629.994 2121.56 582.824 2092.16 541.805 2042.66C500.785 1993.17 465.943 1923.6 438.9 1838.95C384.814 1669.66 361.951 1440.16 383.152 1190.58C404.353 940.996 465.601 718.638 547.467 560.896C588.401 482.025 634.478 419.329 683.259 377.459C732.039 335.591 783.493 314.571 835.206 318.964Z" stroke="#DA70D6"/>
<path d="M850.963 320.441C902.592 325.735 949.241 355.952 989.39 406.156C1029.54 456.363 1063.16 526.53 1088.72 611.635C1139.85 781.844 1158.7 1011.71 1133.15 1260.88C1107.59 1510.06 1042.47 1731.31 957.868 1887.6C915.564 1965.75 868.4 2027.63 818.895 2068.64C769.392 2109.65 717.58 2129.77 665.952 2124.47C614.323 2119.18 567.672 2088.96 527.524 2038.76C487.374 1988.55 453.752 1918.39 428.19 1833.28C377.067 1663.07 358.212 1433.2 383.766 1184.03C409.32 934.858 474.439 713.603 559.046 557.314C601.349 479.169 648.513 417.287 698.018 376.275C747.522 335.264 799.334 315.146 850.963 320.441Z" stroke="#DA70D6"/>
<path d="M866.691 322.193C918.219 328.388 964.334 359.414 1003.6 410.312C1042.87 461.212 1075.26 531.954 1099.33 617.493C1147.48 788.568 1162.32 1018.73 1132.42 1267.42C1102.52 1516.11 1033.55 1736.19 946.229 1890.98C902.567 1968.38 854.331 2029.42 804.117 2069.57C753.906 2109.71 701.751 2128.92 650.223 2122.72C598.694 2116.53 552.579 2085.5 513.312 2034.6C474.044 1983.7 441.652 1912.96 417.579 1827.42C369.435 1656.35 354.595 1426.19 384.493 1177.5C414.392 928.81 483.362 708.725 570.684 553.936C614.345 476.541 662.582 415.492 712.795 375.35C763.007 335.209 815.162 315.998 866.691 322.193Z" stroke="#DA70D6"/>
<path d="M882.386 324.219C933.799 331.313 979.365 363.139 1017.74 414.714C1056.11 466.291 1087.26 537.588 1109.84 623.534C1154.99 795.423 1165.81 1025.81 1131.58 1273.94C1097.34 1522.07 1024.54 1740.91 934.533 1894.16C889.527 1970.78 840.233 2030.97 789.326 2070.23C738.422 2109.49 685.94 2127.79 634.528 2120.7C583.115 2113.6 537.548 2081.78 499.176 2030.2C460.802 1978.62 429.649 1907.33 407.073 1821.38C361.922 1649.49 351.101 1419.11 385.335 1170.98C419.569 922.85 492.37 704.002 582.38 550.761C627.385 474.139 676.68 413.941 727.586 374.682C778.491 335.424 830.973 317.126 882.386 324.219Z" stroke="#DA70D6"/>
<path d="M898.044 326.518C949.325 334.508 994.329 367.124 1031.79 419.362C1069.26 471.601 1099.17 543.431 1120.24 629.757C1162.38 802.408 1169.18 1032.95 1130.62 1280.44C1092.06 1527.94 1015.45 1745.48 922.783 1897.13C876.447 1972.95 826.11 2032.28 774.526 2070.64C722.944 2109.01 670.151 2126.39 618.87 2118.4C567.589 2110.41 522.584 2077.79 485.118 2025.55C447.651 1973.31 417.747 1901.48 396.674 1815.16C354.529 1642.51 347.731 1411.97 386.29 1164.47C424.85 916.98 501.459 699.437 594.129 547.79C640.465 471.965 690.803 412.637 742.387 374.272C793.968 335.908 846.763 318.529 898.044 326.518Z" stroke="#DA70D6"/>
<path d="M913.659 329.091C964.793 337.974 1009.22 371.371 1045.77 424.254C1082.32 477.139 1110.96 549.48 1130.53 636.161C1169.65 809.521 1172.43 1040.14 1129.55 1286.93C1086.68 1533.71 1006.29 1749.88 910.984 1899.89C863.332 1974.89 811.966 2033.33 759.721 2070.79C707.478 2108.25 654.389 2124.71 603.255 2115.82C552.121 2106.94 507.693 2073.54 471.144 2020.66C434.594 1967.78 405.948 1895.44 386.385 1808.75C347.26 1635.39 344.486 1404.77 387.359 1157.99C430.232 911.204 510.626 695.031 605.929 545.024C653.581 470.02 704.947 411.579 757.192 374.12C809.436 336.663 862.525 320.207 913.659 329.091Z" stroke="#DA70D6"/>
<path d="M929.226 331.936C980.197 341.71 1024.04 375.878 1059.66 429.39C1095.28 482.905 1122.66 555.735 1140.7 642.745C1176.8 816.761 1175.55 1047.4 1128.37 1293.39C1081.2 1539.39 997.044 1754.13 899.137 1902.45C850.184 1976.61 797.806 2034.15 744.915 2070.69C692.026 2107.23 638.658 2122.75 587.687 2112.98C536.716 2103.21 492.877 2069.04 457.257 2015.52C421.635 1962.01 394.257 1889.18 376.209 1802.17C340.116 1628.16 341.367 1397.52 388.54 1151.52C435.714 905.524 519.869 690.786 617.775 542.466C666.729 468.305 719.107 410.77 771.998 374.228C824.887 337.688 878.255 322.162 929.226 331.936Z" stroke="#DA70D6"/>
<path d="M944.742 335.051C995.535 345.714 1038.77 380.641 1073.45 434.767C1108.13 488.896 1134.24 562.192 1150.76 649.503C1183.81 824.124 1178.54 1054.7 1127.08 1299.84C1075.62 1544.98 987.729 1758.21 887.249 1904.8C837.008 1978.1 783.634 2034.71 730.114 2070.32C676.595 2105.93 622.964 2120.53 572.172 2109.86C521.379 2099.2 478.143 2064.27 443.462 2010.15C408.78 1956.02 382.676 1882.72 366.151 1795.41C333.099 1620.79 338.376 1390.21 389.835 1145.08C441.295 899.939 529.184 686.703 629.664 540.114C679.905 466.818 733.279 410.206 786.8 374.593C840.318 338.982 893.95 324.389 944.742 335.051Z" stroke="#DA70D6"/>
<path d="M960.202 338.437C1010.8 349.984 1053.42 385.66 1087.15 440.384C1120.88 495.109 1145.7 568.85 1160.7 656.437C1190.7 831.607 1181.4 1062.06 1125.67 1306.26C1069.94 1550.46 978.344 1762.13 875.321 1906.94C823.809 1979.35 769.455 2035.02 715.321 2069.7C661.189 2104.37 607.312 2118.02 556.713 2106.48C506.114 2094.93 463.494 2059.25 429.763 2004.53C396.031 1949.8 371.211 1876.06 356.211 1788.48C326.213 1613.31 335.512 1382.86 391.242 1138.65C446.972 894.452 538.57 682.782 641.593 537.969C693.105 465.562 747.459 409.889 801.593 375.216C855.725 340.544 909.603 326.89 960.202 338.437Z" stroke="#DA70D6"/>
<path d="M975.599 342.093C1025.99 354.522 1067.98 390.936 1100.75 446.24C1133.52 501.546 1157.05 575.709 1170.52 663.543C1197.46 839.211 1184.14 1069.46 1124.15 1312.66C1064.17 1555.85 968.892 1765.89 863.357 1908.88C810.589 1980.38 755.272 2035.09 700.541 2068.82C645.812 2102.54 591.705 2115.25 541.315 2102.82C490.926 2090.39 448.935 2053.98 416.164 1998.67C383.392 1943.37 359.862 1869.21 346.394 1781.37C319.457 1605.7 332.777 1375.45 392.76 1132.26C452.744 889.067 548.022 679.028 653.556 536.034C706.324 464.537 761.641 409.822 816.372 376.098C871.101 342.376 925.209 329.664 975.599 342.093Z" stroke="#DA70D6"/>
<path d="M990.93 346.017C1041.1 359.323 1082.44 396.465 1114.24 452.333C1146.05 508.202 1168.28 582.764 1180.21 670.821C1204.08 846.931 1186.74 1076.92 1122.52 1319.03C1058.3 1561.13 959.375 1769.48 851.361 1910.61C797.353 1981.17 741.09 2034.91 685.779 2067.68C630.469 2100.44 576.149 2112.2 525.984 2098.9C475.819 2085.59 434.47 2048.45 402.669 1992.58C370.867 1936.71 348.636 1862.15 336.702 1774.1C312.835 1597.98 330.172 1368 394.39 1125.89C458.608 883.782 557.538 675.438 665.552 534.309C719.559 463.743 775.823 410.002 831.134 377.239C886.444 344.477 940.765 332.711 990.93 346.017Z" stroke="#DA70D6"/>
<path d="M1006.19 350.207C1056.12 364.387 1096.81 402.245 1127.63 458.658C1158.45 515.074 1179.38 590.013 1189.77 678.264C1210.56 854.765 1189.22 1084.41 1120.78 1325.36C1052.35 1566.31 949.798 1772.9 839.337 1912.12C784.106 1981.73 726.914 2034.49 671.039 2066.28C615.166 2098.07 560.649 2108.89 510.724 2094.71C460.798 2080.53 420.104 2042.67 389.283 1986.25C358.461 1929.84 337.534 1854.9 327.139 1766.65C306.349 1590.15 327.697 1360.5 396.131 1119.55C464.565 878.6 567.115 672.014 677.576 532.791C732.807 463.179 790 410.427 845.875 378.635C901.747 346.843 956.266 336.027 1006.19 350.207Z" stroke="#DA70D6"/>
<path d="M1021.38 354.664C1071.05 369.713 1111.07 408.275 1140.9 465.218C1170.74 522.164 1190.35 597.456 1199.21 685.876C1216.91 862.712 1191.56 1091.95 1118.93 1331.67C1046.3 1571.39 940.162 1776.16 827.288 1913.43C770.851 1982.07 712.746 2033.81 656.325 2064.62C599.906 2095.44 545.208 2105.3 495.538 2090.25C445.868 2075.2 405.84 2036.64 376.009 1979.7C346.176 1922.75 326.56 1847.46 317.707 1759.04C300.001 1582.2 325.353 1352.96 397.982 1113.24C470.611 873.524 576.751 668.759 689.624 531.485C746.062 462.848 804.167 411.102 860.588 380.29C917.007 349.478 971.706 339.616 1021.38 354.664Z" stroke="#DA70D6"/>
<path d="M1036.48 359.384C1085.88 375.298 1125.23 414.553 1154.06 472.008C1182.9 529.465 1201.19 605.088 1208.5 693.649C1223.12 870.767 1193.77 1099.53 1116.97 1337.95C1040.17 1576.36 930.471 1779.24 815.219 1914.52C757.592 1982.17 698.593 2032.89 641.643 2062.71C584.695 2092.54 529.833 2101.44 480.433 2085.53C431.033 2069.62 391.685 2030.36 362.852 1972.91C334.018 1915.45 315.719 1839.83 308.41 1751.27C293.792 1574.15 323.142 1345.38 399.943 1106.97C476.745 868.553 586.442 665.672 701.694 530.389C759.321 462.746 818.32 412.023 875.27 382.2C932.219 352.377 987.081 343.471 1036.48 359.384Z" stroke="#DA70D6"/>
<path d="M1051.5 364.368C1100.62 381.142 1139.27 421.077 1167.1 479.027C1194.93 536.978 1211.9 612.91 1217.66 701.584C1229.19 878.931 1195.85 1107.15 1114.9 1344.19C1033.95 1581.22 920.728 1782.16 803.132 1915.41C744.334 1982.04 684.458 2031.72 626.996 2060.55C569.537 2089.37 514.527 2097.32 465.413 2080.55C416.298 2063.77 377.641 2023.84 349.815 1965.89C321.988 1907.94 305.011 1832.01 299.249 1743.33C287.725 1565.98 321.063 1337.77 402.013 1100.73C482.964 863.691 596.185 662.755 713.781 529.504C772.58 462.878 832.455 413.192 889.917 384.367C947.377 355.543 1002.39 347.595 1051.5 364.368Z" stroke="#DA70D6"/>
<path d="M1066.43 369.614C1115.25 387.242 1153.2 427.846 1180.01 486.273C1206.82 544.701 1222.47 620.917 1226.68 709.679C1235.11 887.199 1197.8 1114.8 1112.72 1350.39C1027.65 1585.98 910.934 1784.91 791.031 1916.09C731.079 1981.68 670.346 2030.31 612.389 2058.13C554.435 2085.94 499.296 2092.93 450.481 2075.3C401.667 2057.67 363.713 2017.07 336.902 1958.64C310.091 1900.21 294.442 1824 290.228 1735.24C281.801 1557.72 319.116 1330.12 404.192 1094.53C489.267 858.938 605.978 660.009 725.881 528.831C785.834 463.241 846.567 414.607 904.523 386.79C962.477 358.973 1017.62 351.987 1066.43 369.614Z" stroke="#DA70D6"/>
<path d="M1081.27 375.119C1129.77 393.596 1167.01 434.857 1192.79 493.742C1218.58 552.63 1232.9 629.107 1235.56 717.929C1240.89 895.569 1199.61 1122.48 1110.43 1356.55C1021.26 1590.62 901.095 1787.48 778.921 1916.55C717.833 1981.08 656.26 2028.65 597.827 2055.45C539.396 2082.25 484.143 2088.27 435.644 2069.8C387.145 2051.32 349.905 2010.06 324.118 1951.17C298.33 1892.29 284.014 1815.81 281.35 1726.99C276.022 1549.35 317.304 1322.43 406.478 1088.36C495.652 854.296 615.817 657.434 737.991 528.368C799.079 463.834 860.652 416.268 919.085 389.467C977.516 362.666 1032.77 356.643 1081.27 375.119Z" stroke="#DA70D6"/>
<path d="M1096.01 380.881C1144.18 400.202 1180.69 442.106 1205.45 501.432C1230.2 560.761 1243.18 637.476 1244.3 726.331C1246.52 904.037 1201.29 1130.2 1108.04 1362.67C1014.8 1595.15 891.213 1789.89 766.805 1916.8C704.6 1980.26 642.206 2026.74 583.314 2052.52C524.425 2078.3 469.075 2083.35 420.906 2064.03C372.736 2044.71 336.222 2002.81 311.467 1943.48C286.711 1884.15 273.732 1807.44 272.618 1718.58C270.392 1540.88 315.627 1314.72 408.873 1082.24C502.118 849.764 625.7 655.029 750.109 528.115C812.314 464.658 874.707 418.173 933.599 392.395C992.489 366.618 1047.84 361.56 1096.01 380.881Z" stroke="#DA70D6"/>
<path d="M1110.65 386.9C1158.47 407.058 1194.25 449.593 1217.96 509.342C1241.68 569.094 1253.32 646.024 1252.88 734.885C1252 912.603 1202.83 1137.94 1105.54 1368.75C1008.25 1599.57 881.29 1792.12 754.685 1916.84C691.383 1979.2 628.187 2024.59 568.855 2049.33C509.524 2074.08 454.095 2078.17 406.27 2058.01C358.445 2037.85 322.667 1995.32 298.951 1935.57C275.235 1875.82 263.596 1798.89 264.034 1710.03C264.909 1532.31 314.085 1306.97 411.373 1076.16C508.661 845.347 635.624 652.798 762.228 528.075C825.531 465.712 888.727 420.324 948.059 395.578C1007.39 370.833 1062.82 366.741 1110.65 386.9Z" stroke="#DA70D6"/>
<path d="M1125.17 393.173C1172.64 414.163 1207.67 457.316 1230.34 517.47C1253.01 577.627 1263.3 654.749 1261.31 743.588C1257.34 921.264 1204.24 1145.71 1102.93 1374.79C1001.63 1603.87 871.329 1794.17 742.568 1916.67C678.186 1977.92 614.208 2022.19 554.453 2045.9C494.699 2069.61 439.207 2072.73 391.741 2051.74C344.275 2030.75 309.246 1987.6 286.576 1927.44C263.906 1867.29 253.612 1790.16 255.6 1701.33C259.576 1523.65 312.678 1299.21 413.979 1070.13C515.281 841.044 645.585 650.741 774.346 528.246C838.728 466.998 902.706 422.72 962.462 399.013C1022.21 375.307 1077.71 372.184 1125.17 393.173Z" stroke="#DA70D6"/>
<path d="M1139.59 399.7C1186.68 421.515 1220.95 465.273 1242.57 525.813C1264.19 586.356 1273.13 663.646 1269.59 752.437C1262.52 930.017 1205.51 1153.5 1100.22 1380.78C994.939 1608.05 861.334 1796.06 730.454 1916.28C665.013 1976.4 600.273 2019.55 540.113 2042.21C479.955 2064.87 424.416 2067.03 377.324 2045.21C330.231 2023.4 295.96 1979.64 274.344 1919.1C252.727 1858.56 243.781 1781.27 247.319 1692.48C254.396 1514.9 311.406 1291.42 416.69 1064.14C521.975 836.859 655.579 648.858 786.459 528.629C851.9 468.514 916.641 425.359 976.801 402.699C1036.96 380.039 1092.5 377.885 1139.59 399.7Z" stroke="#DA70D6"/>
</svg>
